<?xml version="1.0" encoding="UTF-8" standalone="no"?>
<!-- Created with Inkscape (http://www.inkscape.org/) -->

<svg
   version="1.1"
   id="svg4705"
   width="198.24879"
   height="54.481667"
   viewBox="0 0 198.2488 54.481667"
   sodipodi:docname="ssp4c.svg"
   inkscape:version="1.3.2 (091e20e, 2023-11-25, custom)"
   xmlns:inkscape="http://www.inkscape.org/namespaces/inkscape"
   xmlns:sodipodi="http://sodipodi.sourceforge.net/DTD/sodipodi-0.dtd"
   xmlns="http://www.w3.org/2000/svg"
   xmlns:svg="http://www.w3.org/2000/svg"
   xmlns:rdf="http://www.w3.org/1999/02/22-rdf-syntax-ns#"
   xmlns:cc="http://creativecommons.org/ns#"
   xmlns:dc="http://purl.org/dc/elements/1.1/">
  <metadata
     id="metadata4711">
    <rdf:RDF>
      <cc:Work
         rdf:about="">
        <dc:format>image/svg+xml</dc:format>
        <dc:type
           rdf:resource="http://purl.org/dc/dcmitype/StillImage" />
      </cc:Work>
    </rdf:RDF>
  </metadata>
  <defs
     id="defs4709" />
  <sodipodi:namedview
     pagecolor="#ffffff"
     bordercolor="#666666"
     borderopacity="1"
     objecttolerance="10"
     gridtolerance="10"
     guidetolerance="10"
     inkscape:pageopacity="0"
     inkscape:pageshadow="2"
     inkscape:window-width="1920"
     inkscape:window-height="1009"
     id="namedview4707"
     showgrid="false"
     fit-margin-top="0"
     fit-margin-left="0"
     fit-margin-right="0"
     fit-margin-bottom="0"
     inkscape:zoom="2.3871146"
     inkscape:cx="3.3513264"
     inkscape:cy="35.817301"
     inkscape:window-x="-8"
     inkscape:window-y="-8"
     inkscape:window-maximized="1"
     inkscape:current-layer="svg4705"
     inkscape:showpageshadow="2"
     inkscape:pagecheckerboard="0"
     inkscape:deskcolor="#d1d1d1" />
  <path
     style="font-size:57.203px;font-family:Verdana;-inkscape-font-specification:Verdana;fill:#000000;stroke:#000000;stroke-width:1.33417;stroke-linecap:round;stroke-miterlimit:8;fill-opacity:1;stroke-opacity:1"
     d="m 32.733844,31.138179 q 0,2.43001 -1.145178,4.804158 -1.117246,2.374148 -3.15622,4.022086 -2.234492,1.787594 -5.223125,2.793115 -2.960702,1.005522 -7.150375,1.005522 -4.496915,0 -8.1000341,-0.837935 Q 4.3837245,42.087191 0.66888129,40.439253 V 33.512327 H 1.0599174 q 3.1562202,2.625528 7.2900307,4.050017 4.1338109,1.424489 7.7648599,1.424489 5.139332,0 7.98831,-1.92725 2.876908,-1.927249 2.876908,-5.139332 0,-2.765184 -1.368626,-4.077948 -1.340695,-1.312764 -4.105879,-2.038974 -2.094837,-0.558623 -4.552778,-0.921728 -2.43001,-0.363105 -5.167263,-0.921728 -5.5303683,-1.173108 -8.2117589,-3.994155 -2.65345945,-2.848977 -2.65345945,-7.401755 0,-5.2231252 4.41312205,-8.5469323 4.413122,-3.35173824 11.2003923,-3.35173824 4.38519,0 8.044171,0.83793454 3.658981,0.8379346 6.480028,2.0669053 V 10.106022 H 30.666938 Q 28.292791,8.0949789 24.41036,6.7822147 20.555861,5.4415194 16.505844,5.4415194 q -4.441053,0 -7.1503745,1.8434561 -2.6813906,1.843456 -2.6813906,4.7482955 0,2.597597 1.3406953,4.077948 1.3406953,1.480352 4.7203648,2.262424 1.787594,0.391036 5.08347,0.949659 3.295875,0.558623 5.58623,1.145177 4.636571,1.228971 6.982788,3.714843 2.346217,2.485873 2.346217,6.954857 z m 38.489128,0 q 0,2.43001 -1.145177,4.804158 -1.117247,2.374148 -3.156221,4.022086 -2.234492,1.787594 -5.223125,2.793115 -2.960702,1.005522 -7.150375,1.005522 -4.496915,0 -8.100034,-0.837935 -3.575187,-0.837934 -7.290031,-2.485872 v -6.926926 h 0.391037 q 3.15622,2.625528 7.29003,4.050017 4.133811,1.424489 7.76486,1.424489 5.139332,0 7.98831,-1.92725 2.876908,-1.927249 2.876908,-5.139332 0,-2.765184 -1.368626,-4.077948 -1.340695,-1.312764 -4.105879,-2.038974 -2.094837,-0.558623 -4.552778,-0.921728 -2.43001,-0.363105 -5.167263,-0.921728 -5.530368,-1.173108 -8.211759,-3.994155 -2.653459,-2.848977 -2.653459,-7.401755 0,-5.2231252 4.413122,-8.5469323 4.413122,-3.35173824 11.200392,-3.35173824 4.385191,0 8.044171,0.83793454 3.658981,0.8379346 6.480028,2.0669053 V 10.106022 H 69.156067 Q 66.781919,8.0949789 62.899489,6.7822147 59.04499,5.4415194 54.994973,5.4415194 q -4.441054,0 -7.150375,1.8434561 -2.681391,1.843456 -2.681391,4.7482955 0,2.597597 1.340695,4.077948 1.340696,1.480352 4.720365,2.262424 1.787594,0.391036 5.08347,0.949659 3.295876,0.558623 5.58623,1.145177 4.636571,1.228971 6.982788,3.714843 2.346217,2.485873 2.346217,6.954857 z M 107.31002,13.988452 q 0,2.765184 -0.97759,5.139332 -0.94966,2.346217 -2.68139,4.077948 -2.1507,2.150699 -5.083468,3.240014 -2.932771,1.061383 -7.401756,1.061383 h -5.530368 v 15.50179 H 80.10508 V 1.4194336 h 11.284186 q 3.742774,0 6.340371,0.6424165 2.597593,0.6144853 4.608643,1.9551806 2.37415,1.5920757 3.65898,3.9662236 1.31276,2.3741477 1.31276,6.0051977 z m -5.75382,0.139656 q 0,-2.150699 -0.75414,-3.742775 Q 100.04792,8.7932577 98.511709,7.7877362 97.171014,6.9218705 95.439283,6.5587655 93.735482,6.1677294 91.109954,6.1677294 H 85.635448 V 22.786765 h 4.664503 q 3.351738,0 5.446574,-0.586554 2.094837,-0.614486 3.407601,-1.92725 1.312764,-1.340695 1.843454,-2.821046 0.55862,-1.480351 0.55862,-3.323807 z"
     id="text1"
     transform="scale(0.99731453,1.0026927)"
     aria-label="SSP" />
  <rect
     style="fill:#6e1b1b;fill-opacity:1;stroke:#6e1b1b;stroke-width:0.666667;stroke-linecap:round;stroke-linejoin:round;stroke-dasharray:none;stroke-opacity:1"
     id="rect4-0-1-4-3"
     width="197.58017"
     height="4.9708452"
     x="0.33528903"
     y="49.177486" />
  <path
     style="font-size:97.3333px;font-family:Verdana;-inkscape-font-specification:Verdana;fill:#6e1b1b;fill-opacity:1;stroke:#6e1b1b;stroke-width:0.666667;stroke-linecap:round;stroke-linejoin:round;stroke-dasharray:none;stroke-opacity:1"
     d="m 150.85519,35.199791 h -7.21903 v 13.653315 h -6.27174 V 35.199791 h -23.29036 v -7.49466 L 137.62574,0.33333349 h 6.01042 V 29.986115 h 7.21903 z M 137.36442,29.986115 V 8.0886752 L 118.51654,29.986115 Z"
     id="path5" />
  <path
     style="font-size:97.3333px;font-family:Verdana;-inkscape-font-specification:Verdana;fill:#000000;stroke:#000000;stroke-width:0.666667;stroke-linecap:round;stroke-linejoin:round;stroke-dasharray:none;stroke-opacity:1"
     d="m 197.91505,41.17816 q -1.79659,0.696219 -3.26653,1.30541 -1.43727,0.609192 -3.78917,1.276401 -1.99259,0.551174 -4.34449,0.928292 -2.31924,0.406128 -5.12845,0.406128 -5.29178,0 -9.63627,-1.305411 -4.31182,-1.334419 -7.51302,-4.148302 -3.13587,-2.755866 -4.8998,-6.991196 -1.76393,-4.264339 -1.76393,-9.892106 0,-5.337677 1.6986,-9.543998 1.6986,-4.2063208 4.8998,-7.1072318 3.1032,-2.8138832 7.48036,-4.2933483 4.40981,-1.47946441 9.76692,-1.47946441 3.91984,0 7.80701,0.84126431 3.91984,0.8412638 8.68897,2.958929 v 6.8171402 h -0.48998 q -4.01783,-2.9879378 -7.97033,-4.3513658 -3.9525,-1.363428 -8.46032,-1.363428 -3.69118,0 -6.66372,1.073337 -2.93988,1.044328 -5.25912,3.27803 -2.2539,2.1756828 -3.52785,5.5117298 -1.24128,3.307039 -1.24128,7.658406 0,4.55443 1.37195,7.832459 1.4046,3.27803 3.59318,5.337677 2.28657,2.146673 5.32444,3.191002 3.07054,1.015318 6.46773,1.015318 4.67114,0 8.75431,-1.421446 4.08316,-1.421447 7.64368,-4.264339 h 0.45731 z"
     id="path6" />
</svg>
